{
  "accessors": [
    {
      "bufferView": 2,
      "componentType": 5126,
      "count": 30182,
      "max": [
        3.0357797145843506,
        0.7802351713180542,
        1.5625052452087402
      ],
      "min": [
        -0.39776891469955444,
        -0.6415699124336243,
        -1.0039677619934082
      ],
      "type": "VEC3"
    },
    {
      "bufferView": 2,
      "byteOffset": 362184,
      "componentType": 5126,
      "count": 30182,
      "max": [
        0.999771237373352,
        1.0,
        0.9994286298751831
      ],
      "min": [
        -0.9999153017997742,
        -0.9999832510948181,
        -0.9999972581863403
      ],
      "type": "VEC3"
    },
    {
      "bufferView": 1,
      "componentType": 5126,
      "count": 30182,
      "max": [
        1.0,
        0.9825403094291687
      ],
      "min": [
        0.0,
        0.0
      ],
      "type": "VEC2"
    },
    {
      "bufferView": 0,
      "componentType": 5125,
      "count": 92580,
      "type": "SCALAR"
    },
    {
      "bufferView": 2,
      "byteOffset": 724368,
      "componentType": 5126,
      "count": 6482,
      "max": [
        2.364391326904297,
        0.5617207884788513,
        0.18700812757015228
      ],
      "min": [
        -0.14316385984420776,
        0.239712655544281,
        -0.9218116998672485
      ],
      "type": "VEC3"
    },
    {
      "bufferView": 2,
      "byteOffset": 802152,
      "componentType": 5126,
      "count": 6482,
      "max": [
        0.9995679259300232,
        0.999317467212677,
        0.9999058842658997
      ],
      "min": [
        -0.9990403652191162,
        -0.9999935626983643,
        -0.9974535703659058
      ],
      "type": "VEC3"
    },
    {
      "bufferView": 1,
      "byteOffset": 241456,
      "componentType": 5126,
      "count": 6482,
      "max": [
        0.235863596200943,
        0.21166843175888062
      ],
      "min": [
        0.0,
        0.0
      ],
      "type": "VEC2"
    },
    {
      "bufferView": 0,
      "byteOffset": 370320,
      "componentType": 5125,
      "count": 37764,
      "type": "SCALAR"
    },
    {
      "bufferView": 2,
      "byteOffset": 879936,
      "componentType": 5126,
      "count": 1934,
      "max": [
        2.353407144546509,
        0.3024921715259552,
        0.10153784602880478
      ],
      "min": [
        -0.186118483543396,
        -0.2860548496246338,
        -0.43671199679374695
      ],
      "type": "VEC3"
    },
    {
      "bufferView": 2,
      "byteOffset": 903144,
      "componentType": 5126,
      "count": 1934,
      "max": [
        0.9998953342437744,
        0.9998443722724915,
        0.9999701380729675
      ],
      "min": [
        -0.9998306035995483,
        -0.9996190667152405,
        -0.9992685317993164
      ],
      "type": "VEC3"
    },
    {
      "bufferView": 1,
      "byteOffset": 293312,
      "componentType": 5126,
      "count": 1934,
      "max": [
        0.0,
        0.0
      ],
      "min": [
        0.0,
        0.0
      ],
      "type": "VEC2"
    },
    {
      "bufferView": 0,
      "byteOffset": 521376,
      "componentType": 5125,
      "count": 10356,
      "type": "SCALAR"
    },
    {
      "bufferView": 2,
      "byteOffset": 926352,
      "componentType": 5126,
      "count": 8704,
      "max": [
        0.035431068390607834,
        0.17819520831108093,
        0.17819520831108093
      ],
      "min": [
        -1.0025527785728627e-07,
        -0.17819520831108093,
        -0.17819520831108093
      ],
      "type": "VEC3"
    },
    {
      "bufferView": 2,
      "byteOffset": 1030800,
      "componentType": 5126,
      "count": 8704,
      "max": [
        1.0,
        0.9999175071716309,
        0.9999175071716309
      ],
      "min": [
        -3.0106762096693274e-06,
        -0.9999175667762756,
        -0.9999175667762756
      ],
      "type": "VEC3"
    },
    {
      "bufferView": 1,
      "byteOffset": 308784,
      "componentType": 5126,
      "count": 8704,
      "max": [
        1.0,
        0.879547119140625
      ],
      "min": [
        0.0,
        0.0
      ],
      "type": "VEC2"
    },
    {
      "bufferView": 0,
      "byteOffset": 562800,
      "componentType": 5125,
      "count": 13056,
      "type": "SCALAR"
    },
    {
      "bufferView": 2,
      "byteOffset": 1135248,
      "componentType": 5126,
      "count": 2263,
      "max": [
        0.47117188572883606,
        0.17793075740337372,
        0.0065203458070755005
      ],
      "min": [
        0.0272815003991127,
        -0.2068679928779602,
        -6.450642831623554e-05
      ],
      "type": "VEC3"
    },
    {
      "bufferView": 2,
      "byteOffset": 1162404,
      "componentType": 5126,
      "count": 2263,
      "max": [
        0.9999811053276062,
        0.9999889135360718,
        1.0
      ],
      "min": [
        -0.9999810457229614,
        -0.9999883770942688,
        -1.0
      ],
      "type": "VEC3"
    },
    {
      "bufferView": 1,
      "byteOffset": 378416,
      "componentType": 5126,
      "count": 2263,
      "max": [
        0.5078635811805725,
        0.6886526942253113
      ],
      "min": [
        0.11131126433610916,
        0.4999999701976776
      ],
      "type": "VEC2"
    },
    {
      "bufferView": 0,
      "byteOffset": 615024,
      "componentType": 5125,
      "count": 8700,
      "type": "SCALAR"
    }
  ],
  "asset": {
    "extras": {
      "author": "briligg (https://sketchfab.com/briligg)",
      "license": "CC-BY-SA-4.0 (http://creativecommons.org/licenses/by-sa/4.0/)",
      "source": "https://sketchfab.com/3d-models/shoggoth-for-inflatable-93565e3c124a42fab26c6bf0e3e03a44",
      "title": "Shoggoth for inflatable"
    },
    "generator": "Sketchfab-15.24.0",
    "version": "2.0"
  },
  "bufferViews": [
    {
      "buffer": 0,
      "byteLength": 649824,
      "name": "floatBufferViews",
      "target": 34963
    },
    {
      "buffer": 0,
      "byteLength": 396520,
      "byteOffset": 649824,
      "byteStride": 8,
      "name": "floatBufferViews",
      "target": 34962
    },
    {
      "buffer": 0,
      "byteLength": 1189560,
      "byteOffset": 1046344,
      "byteStride": 12,
      "name": "floatBufferViews",
      "target": 34962
    }
  ],
  "buffers": [
    {
      "byteLength": 2235904,
      "uri": "gltf.bin"
    }
  ],
  "extensionsRequired": [
    "KHR_materials_pbrSpecularGlossiness"
  ],
  "extensionsUsed": [
    "KHR_materials_pbrSpecularGlossiness"
  ],
  "images": [
    {
      "uri": "textures/BodyEyes_diffuse.png"
    },
    {
      "uri": "textures/Smiley_diffuse.png"
    }
  ],
  "materials": [
    {
      "doubleSided": true,
      "extensions": {
        "KHR_materials_pbrSpecularGlossiness": {
          "diffuseFactor": [
            1.0,
            1.0,
            1.0,
            1.0
          ],
          "diffuseTexture": {
            "index": 0
          },
          "glossinessFactor": 0.5,
          "specularFactor": [
            0.0,
            0.0,
            0.0
          ]
        }
      },
      "name": "BodyEyes"
    },
    {
      "doubleSided": true,
      "extensions": {
        "KHR_materials_pbrSpecularGlossiness": {
          "diffuseFactor": [
            0.0789817,
            0.162636,
            0.0723585,
            1.0
          ],
          "glossinessFactor": 0.03093221264110988,
          "specularFactor": [
            0.05,
            0.05,
            0.05
          ]
        }
      },
      "name": "Material.004"
    },
    {
      "doubleSided": true,
      "extensions": {
        "KHR_materials_pbrSpecularGlossiness": {
          "diffuseFactor": [
            0.159255,
            0.266759,
            0.0982476,
            1.0
          ],
          "glossinessFactor": 0.05181799678091893,
          "specularFactor": [
            0.05,
            0.05,
            0.05
          ]
        }
      },
      "name": "Material.002"
    },
    {
      "doubleSided": true,
      "extensions": {
        "KHR_materials_pbrSpecularGlossiness": {
          "diffuseFactor": [
            1.0,
            1.0,
            1.0,
            1.0
          ],
          "diffuseTexture": {
            "index": 1
          },
          "glossinessFactor": 0.27894699999999994,
          "specularFactor": [
            0.0,
            0.0,
            0.0
          ]
        }
      },
      "name": "Smiley"
    },
    {
      "extensions": {
        "KHR_materials_pbrSpecularGlossiness": {
          "diffuseFactor": [
            0.0,
            0.0,
            0.0,
            1.0
          ],
          "glossinessFactor": 0.11052600000000001,
          "specularFactor": [
            0.0,
            0.0,
            0.0
          ]
        }
      },
      "name": "Material"
    }
  ],
  "meshes": [
    {
      "name": "Shoggoth_Inflatable_BodyEyes_0",
      "primitives": [
        {
          "attributes": {
            "NORMAL": 1,
            "POSITION": 0,
            "TEXCOORD_0": 2
          },
          "indices": 3,
          "material": 0,
          "mode": 4
        }
      ]
    },
    {
      "name": "Shoggoth_Inflatable_Material.004_0",
      "primitives": [
        {
          "attributes": {
            "NORMAL": 5,
            "POSITION": 4,
            "TEXCOORD_0": 6
          },
          "indices": 7,
          "material": 1,
          "mode": 4
        }
      ]
    },
    {
      "name": "Shoggoth_Inflatable_Material.002_0",
      "primitives": [
        {
          "attributes": {
            "NORMAL": 9,
            "POSITION": 8,
            "TEXCOORD_0": 10
          },
          "indices": 11,
          "material": 2,
          "mode": 4
        }
      ]
    },
    {
      "name": "HappyFaceMask_Smiley_0",
      "primitives": [
        {
          "attributes": {
            "NORMAL": 13,
            "POSITION": 12,
            "TEXCOORD_0": 14
          },
          "indices": 15,
          "material": 3,
          "mode": 4
        }
      ]
    },
    {
      "name": "HappyFaceMask_Material_0",
      "primitives": [
        {
          "attributes": {
            "NORMAL": 17,
            "POSITION": 16,
            "TEXCOORD_0": 18
          },
          "indices": 19,
          "material": 4,
          "mode": 4
        }
      ]
    }
  ],
  "nodes": [
    {
      "children": [
        1
      ],
      "matrix": [
        1.0,
        0.0,
        0.0,
        0.0,
        0.0,
        2.220446049250313e-16,
        -1.0,
        0.0,
        0.0,
        1.0,
        2.220446049250313e-16,
        0.0,
        0.0,
        0.0,
        0.0,
        1.0
      ],
      "name": "Sketchfab_model"
    },
    {
      "children": [
        2
      ],
      "matrix": [
        0.009999999776482582,
        0.0,
        0.0,
        0.0,
        0.0,
        0.0,
        0.009999999776482582,
        0.0,
        0.0,
        -0.009999999776482582,
        0.0,
        0.0,
        0.0,
        0.0,
        0.0,
        1.0
      ],
      "name": "db85dbe5e412419d8549f9d92ae53901.fbx"
    },
    {
      "children": [
        3
      ],
      "name": "RootNode"
    },
    {
      "children": [
        4,
        5,
        6,
        7
      ],
      "matrix": [
        100.0,
        0.0,
        0.0,
        0.0,
        0.0,
        -1.629206793918314e-05,
        -99.99999999999868,
        0.0,
        0.0,
        99.99999999999868,
        -1.629206793918314e-05,
        0.0,
        0.0,
        0.0,
        0.0,
        1.0
      ],
      "name": "Shoggoth_Inflatable"
    },
    {
      "mesh": 0,
      "name": "Shoggoth_Inflatable_BodyEyes_0"
    },
    {
      "mesh": 1,
      "name": "Shoggoth_Inflatable_Material.004_0"
    },
    {
      "mesh": 2,
      "name": "Shoggoth_Inflatable_Material.002_0"
    },
    {
      "children": [
        8,
        9
      ],
      "matrix": [
        1.0,
        0.0,
        0.0,
        0.0,
        0.0,
        1.0,
        -2.646977960169688e-23,
        0.0,
        0.0,
        2.646977960169688e-23,
        1.0,
        0.0,
        -0.3070904314517975,
        0.014014401473104954,
        0.5169218182563782,
        1.0
      ],
      "name": "HappyFaceMask"
    },
    {
      "mesh": 3,
      "name": "HappyFaceMask_Smiley_0"
    },
    {
      "mesh": 4,
      "name": "HappyFaceMask_Material_0"
    }
  ],
  "samplers": [
    {
      "magFilter": 9728,
      "minFilter": 9986,
      "wrapS": 10497,
      "wrapT": 10497
    },
    {
      "magFilter": 9729,
      "minFilter": 9987,
      "wrapS": 10497,
      "wrapT": 10497
    }
  ],
  "scene": 0,
  "scenes": [
    {
      "name": "Sketchfab_Scene",
      "nodes": [
        0
      ]
    }
  ],
  "textures": [
    {
      "sampler": 0,
      "source": 0
    },
    {
      "sampler": 1,
      "source": 1
    }
  ]
}
